<mxfile host="app.diagrams.net" modified="2024-07-16T10:36:50.934Z" agent="Mozilla/5.0 (Windows NT 10.0; Win64; x64) AppleWebKit/537.36 (KHTML, like Gecko) Chrome/126.0.0.0 Safari/537.36 Edg/126.0.0.0" version="24.6.5" etag="_N33oJgaKCjf_2GjQP3i" type="github">
  <diagram name="Page-1" id="h2lkcHmwj5S2af2IApFc">
    <mxGraphModel>
      <root>
        <mxCell id="0" />
        <mxCell id="1" parent="0" />
      </root>
    </mxGraphModel>
  </diagram>
</mxfile>
